<?xml version="1.0" encoding="utf-8"?>
<!-- Generator: Adobe Illustrator 17.1.0, SVG Export Plug-In . SVG Version: 6.00 Build 0)  -->
<!DOCTYPE svg PUBLIC "-//W3C//DTD SVG 1.1//EN" "http://www.w3.org/Graphics/SVG/1.1/DTD/svg11.dtd">
<svg version="1.1" id="Layer_1" xmlns="http://www.w3.org/2000/svg" xmlns:xlink="http://www.w3.org/1999/xlink" x="0px" y="0px"
	 viewBox="0 0 10 16" enable-background="new 0 0 10 16" xml:space="preserve">
<path fill="#555759" stroke="#3E81B2" stroke-miterlimit="10" d="M8,0.5H2C1.2,0.5,0.5,1.2,0.5,2v12c0,0.8,0.7,1.5,1.5,1.5h6
	c0.8,0,1.5-0.7,1.5-1.5V2C9.5,1.2,8.8,0.5,8,0.5z M5,14.8c-0.4,0-0.7-0.3-0.7-0.8s0.3-0.8,0.7-0.8c0.4,0,0.8,0.3,0.8,0.8
	S5.4,14.8,5,14.8z M8.4,12.5H1.6V2c0-0.2,0.2-0.4,0.4-0.4h6c0.2,0,0.4,0.2,0.4,0.4V12.5z"/>
</svg>
