<?xml version="1.0" encoding="utf-8"?>
<!-- Generator: Adobe Illustrator 17.1.0, SVG Export Plug-In . SVG Version: 6.00 Build 0)  -->
<!DOCTYPE svg PUBLIC "-//W3C//DTD SVG 1.1//EN" "http://www.w3.org/Graphics/SVG/1.1/DTD/svg11.dtd">
<svg version="1.1" id="Layer_1" xmlns="http://www.w3.org/2000/svg" xmlns:xlink="http://www.w3.org/1999/xlink" x="0px" y="0px"
	 viewBox="0 0 28.6 30" enable-background="new 0 0 28.6 30" xml:space="preserve">
<g>
	<path fill="#BBBBBB" d="M14.7,7.6c-1,0-2.5,0.6-2.5,1.5v2.7h5V9C17.2,8.2,15.6,7.6,14.7,7.6z"/>
	<path fill="#BBBBBB" d="M14.3,0C6.4,0,0,5.8,0,12.9c0,6.8,5.9,12.4,13.4,12.8c0.5,2.6,0.9,4.3,0.9,4.3s3.6-2.2,6.9-5.9
		c4.4-2.2,7.4-6.4,7.4-11.3C28.6,5.8,22.2,0,14.3,0z M20.2,17.1c0,0.4-1,0.7-1.5,0.7H9.9c-0.5,0-0.8-0.3-0.8-0.7V12
		c0-0.4,0.3-0.2,0.8-0.2h1.2V9c0-1.6,1.6-2.9,3.5-2.9s3.5,1.3,3.5,2.9v2.7h0.5c0.5,0,1.5-0.2,1.5,0.2V17.1z"/>
</g>
</svg>
