<?xml version="1.0" encoding="utf-8"?>
<!-- Generator: Adobe Illustrator 17.1.0, SVG Export Plug-In . SVG Version: 6.00 Build 0)  -->
<!DOCTYPE svg PUBLIC "-//W3C//DTD SVG 1.1//EN" "http://www.w3.org/Graphics/SVG/1.1/DTD/svg11.dtd">
<svg version="1.1" id="Layer_1" xmlns="http://www.w3.org/2000/svg" xmlns:xlink="http://www.w3.org/1999/xlink" x="0px" y="0px"
	 viewBox="0 0 20 20" enable-background="new 0 0 20 20" xml:space="preserve">
<g>
	<path fill="#FFFFFF" d="M20,10c0,2.7-1,5.2-2.9,7.1C15.2,19,12.7,20,10,20C4.5,20,0,15.5,0,10c0-2.7,1-5.2,2.9-7.1S7.3,0,10,0
		C15.5,0,20,4.5,20,10z M18,10c0-4.4-3.6-8-8-8C7.9,2,5.8,2.8,4.3,4.3S2,7.9,2,10c0,4.4,3.6,8,8,8c2.2,0,4.2-0.8,5.7-2.3
		S18,12.1,18,10z M9,4.9h2v2H9V4.9z M9,8.2h2v6.9H9V8.2z"/>
</g>
</svg>
