<?xml version="1.0" encoding="utf-8"?>
<!-- Generator: Adobe Illustrator 17.1.0, SVG Export Plug-In . SVG Version: 6.00 Build 0)  -->
<!DOCTYPE svg PUBLIC "-//W3C//DTD SVG 1.1//EN" "http://www.w3.org/Graphics/SVG/1.1/DTD/svg11.dtd">
<svg version="1.1" id="Layer_1" xmlns="http://www.w3.org/2000/svg" xmlns:xlink="http://www.w3.org/1999/xlink" x="0px" y="0px"
	 viewBox="0 0 20 20" enable-background="new 0 0 20 20" xml:space="preserve">
<g>
	<path fill="#3E81B3" d="M19.6,10.4h-2.1v9.2c0,0.2-0.2,0.4-0.4,0.4h-4.2c-0.2,0-0.4-0.2-0.4-0.4v-7.1h-5v7.1c0,0.2-0.2,0.4-0.4,0.4
		H2.9c-0.2,0-0.4-0.2-0.4-0.4v-9.2H0.4c-0.2,0-0.3-0.1-0.4-0.3C0,10,0,9.8,0.1,9.7l9.6-9.6c0.2-0.2,0.4-0.2,0.6,0l9.6,9.6
		C20,9.8,20,10,20,10.2C19.9,10.3,19.7,10.4,19.6,10.4z"/>
</g>
</svg>
