<?xml version="1.0" encoding="utf-8"?>
<!-- Generator: Adobe Illustrator 17.1.0, SVG Export Plug-In . SVG Version: 6.00 Build 0)  -->
<!DOCTYPE svg PUBLIC "-//W3C//DTD SVG 1.1//EN" "http://www.w3.org/Graphics/SVG/1.1/DTD/svg11.dtd">
<svg version="1.1" id="Layer_1" xmlns="http://www.w3.org/2000/svg" xmlns:xlink="http://www.w3.org/1999/xlink" x="0px" y="0px"
	 viewBox="0 0 200 200" enable-background="new 0 0 200 200" xml:space="preserve">
<g>
	<path fill="#3E81B2" d="M200,100c0,55.2-44.8,100-100,100C44.8,200,0,155.2,0,100C0,44.8,44.8,0,100,0C155.2,0,200,44.8,200,100"/>
	<g id="_x31_STUg3_2_">
		<g>
			<path fill="#FFFFFF" d="M63.8,160.7c3.3-0.3,6-0.4,8.6-0.7c6.9-0.9,12.8-4.2,18.1-8.4c11.5-9.1,20.9-20.1,28.6-32.6
				c2-3.2,4.4-6.2,7.7-8.1c3.4-2.1,7-3.9,10.7-5.6c2.7-1.3,5.2-2.8,7.1-5.2c6.7-8.9,11.8-18.8,17.1-28.5c0.2-0.3,0.1-0.9-0.2-1.1
				c-3.8-4.8-8.3-8.4-14.6-9.1c-0.4,0-0.9-0.4-1.1-0.7c-4.4-8.1-11.9-12.2-20.1-15.2c-1.2-0.4-2.3-0.5-3.6,0.1c-2,1-2,0.9-2.2-1.3
				c-0.3-3.1-4.1-5.7-7-4.7c-2.7,0.9-5.4,4.9-5.1,7.7c0.3,3,0.5,5.9,1,8.9c0.6,3.2-0.5,5.6-3.1,7.2c-3,2-6.2,3.7-9.4,5.3
				c-3.4,1.8-7,1.8-10.7,0.8c-2.6-0.7-5.3-1.3-7.9-1.8c-2.4-0.4-3.6,0.5-3.6,3c0,1.5,0.1,3,0.2,4.5c0.1,1.3,0.4,2.7,0.1,4
				c-1.2,5.2-2.6,10.3-3.8,15.5c-1.4,6.1-2.7,12.2-4.2,18.2c-1.5,6.1-4.6,11.4-9.1,15.8c-2.9,2.7-6.5,4.2-9.9,6.1
				c-2.1,1.2-4.4,2.4-6,4.1c-3.3,3.5-3.6,7.9-2.2,12.3c1.5,4.4,4.8,7,9.3,7.7C53.7,159.8,59.1,160.2,63.8,160.7z"/>
			<path fill="#FFFFFF" d="M63.8,160.7c-4.8-0.5-10.1-0.9-15.4-1.7c-4.5-0.7-7.8-3.4-9.3-7.7c-1.5-4.4-1.1-8.8,2.2-12.3
				c1.6-1.7,3.9-3,6-4.1c3.4-1.9,7-3.4,9.9-6.1c4.6-4.4,7.6-9.7,9.1-15.8c1.5-6.1,2.8-12.2,4.2-18.2c1.2-5.2,2.6-10.3,3.8-15.5
				c0.3-1.3-0.1-2.7-0.1-4c-0.1-1.5-0.2-3-0.2-4.5c0.1-2.5,1.2-3.5,3.6-3c2.7,0.5,5.3,1.1,7.9,1.8c3.7,0.9,7.3,0.9,10.7-0.8
				c3.2-1.7,6.4-3.4,9.4-5.3c2.5-1.6,3.7-4,3.1-7.2c-0.5-2.9-0.7-5.9-1-8.9c-0.3-2.9,2.4-6.8,5.1-7.7c2.9-1,6.8,1.6,7,4.7
				c0.2,2.2,0.2,2.2,2.2,1.3c1.2-0.6,2.4-0.5,3.6-0.1c8.3,3,15.7,7.1,20.1,15.2c0.2,0.3,0.7,0.7,1.1,0.7c6.3,0.7,10.8,4.3,14.6,9.1
				c0.2,0.3,0.3,0.9,0.2,1.1c-5.3,9.8-10.4,19.6-17.1,28.5c-1.9,2.5-4.4,3.9-7.1,5.2c-3.6,1.8-7.2,3.6-10.7,5.6
				c-3.3,2-5.7,4.9-7.7,8.1c-7.7,12.5-17.1,23.5-28.6,32.6c-5.3,4.2-11.2,7.5-18.1,8.4C69.8,160.3,67.1,160.4,63.8,160.7z"/>
		</g>
	</g>
</g>
</svg>
