<?xml version="1.0" encoding="utf-8"?>
<!-- Generator: Adobe Illustrator 17.1.0, SVG Export Plug-In . SVG Version: 6.00 Build 0)  -->
<!DOCTYPE svg PUBLIC "-//W3C//DTD SVG 1.1//EN" "http://www.w3.org/Graphics/SVG/1.1/DTD/svg11.dtd">
<svg version="1.1" id="Layer_1" xmlns="http://www.w3.org/2000/svg" xmlns:xlink="http://www.w3.org/1999/xlink" x="0px" y="0px"
	 viewBox="0 0 20 10.3" enable-background="new 0 0 20 10.3" xml:space="preserve">
<g>
	<path fill="#3E81B2" d="M9,10.3c-0.2,0-0.4-0.1-0.5-0.3L4.2,4L1,6.1C0.7,6.3,0.3,6.3,0.1,6C-0.1,5.7,0,5.3,0.3,5.1L4,2.6
		c0.3-0.2,0.7-0.1,0.9,0.2l4.1,5.7l3.2-5.8c0.2,0.4,0.6,0.6,1,0.8L9.6,10C9.5,10.2,9.3,10.3,9,10.3"/>
	<path fill="#3E81B2" d="M14,2.8c-0.8,0-1.4-0.6-1.4-1.4S13.2,0,14,0c0.8,0,1.4,0.6,1.4,1.4S14.7,2.8,14,2.8"/>
	<path fill="#3E81B2" d="M19.8,8.1c-0.3,0.2-0.7,0.2-0.9-0.1l-3.6-4.7c0.4-0.2,0.6-0.6,0.8-1l3.8,5C20.1,7.5,20,7.9,19.8,8.1"/>
</g>
</svg>
