<?xml version="1.0" encoding="utf-8"?>
<!-- Generator: Adobe Illustrator 17.1.0, SVG Export Plug-In . SVG Version: 6.00 Build 0)  -->
<!DOCTYPE svg PUBLIC "-//W3C//DTD SVG 1.1//EN" "http://www.w3.org/Graphics/SVG/1.1/DTD/svg11.dtd">
<svg version="1.1" id="Layer_1" xmlns="http://www.w3.org/2000/svg" xmlns:xlink="http://www.w3.org/1999/xlink" x="0px" y="0px"
	 viewBox="0 0 20 20" enable-background="new 0 0 20 20" xml:space="preserve">
<g>
	<path fill="#4E9D2D" d="M20,16.2c0,0.1-0.1,0.2-0.1,0.3l-3.4,3.4c-0.1,0.1-0.2,0.1-0.3,0.1c-0.1,0-0.2-0.1-0.3-0.1L10,14l-5.8,5.8
		C4.1,19.9,4,20,3.8,20c-0.1,0-0.2-0.1-0.3-0.1l-3.4-3.4C0.1,16.4,0,16.3,0,16.2s0.1-0.2,0.1-0.3L6,10L0.1,4.2C0.1,4.1,0,4,0,3.8
		c0-0.1,0.1-0.2,0.1-0.3l3.4-3.4C3.6,0.1,3.7,0,3.8,0C4,0,4.1,0.1,4.2,0.1L10,6l5.8-5.8C15.9,0.1,16,0,16.2,0c0.1,0,0.2,0.1,0.3,0.1
		l3.4,3.4C19.9,3.6,20,3.7,20,3.8c0,0.1-0.1,0.2-0.1,0.3L14,10l5.8,5.8C19.9,15.9,20,16,20,16.2z"/>
</g>
</svg>
