<?xml version="1.0" encoding="utf-8"?>
<!-- Generator: Adobe Illustrator 17.1.0, SVG Export Plug-In . SVG Version: 6.00 Build 0)  -->
<!DOCTYPE svg PUBLIC "-//W3C//DTD SVG 1.1//EN" "http://www.w3.org/Graphics/SVG/1.1/DTD/svg11.dtd">
<svg version="1.1" id="Layer_1" xmlns="http://www.w3.org/2000/svg" xmlns:xlink="http://www.w3.org/1999/xlink" x="0px" y="0px"
	 viewBox="0 0 28.6 30" enable-background="new 0 0 28.6 30" xml:space="preserve">
<g>
	<path fill="#BBBBBB" d="M14.3,0C6.4,0,0,5.8,0,12.9c0,6.8,5.9,12.4,13.4,12.8c0.5,2.6,0.9,4.3,0.9,4.3s3.6-2.2,6.9-5.9
		c4.4-2.2,7.4-6.4,7.4-11.3C28.6,5.8,22.2,0,14.3,0 M7.1,16.6c-1,0-2-0.4-2.8-1.1l1-1.2c0.5,0.5,1.2,0.8,1.8,0.8c0.7,0,1-0.3,1-0.7
		c0-0.5-0.4-0.6-1.1-0.9l-1-0.4c-0.8-0.3-1.5-1-1.5-2.1c0-1.2,1.1-2.2,2.7-2.2c0.9,0,1.8,0.3,2.4,1l-0.9,1.1c-0.5-0.4-1-0.6-1.6-0.6
		c-0.6,0-1,0.3-1,0.7c0,0.5,0.5,0.6,1.2,0.9l1,0.4c0.9,0.4,1.5,1,1.5,2C10,15.5,8.9,16.6,7.1,16.6 M18.2,16.5h-1.6v-2.8
		c0-0.7,0.1-1.8,0.2-2.6h0l-0.6,1.7L15,15.8h-0.7l-1.2-2.9l-0.6-1.7h0c0.1,0.7,0.2,1.8,0.2,2.6v2.8h-1.6V8.9H13l1.3,3.4l0.4,1.3h0
		l0.5-1.3l1.2-3.4h1.8V16.5z M22.3,16.6c-1,0-2-0.4-2.8-1.1l1-1.2c0.5,0.5,1.2,0.8,1.8,0.8c0.7,0,1-0.3,1-0.7c0-0.5-0.4-0.6-1.1-0.9
		l-1-0.4c-0.8-0.3-1.5-1-1.5-2.1c0-1.2,1.1-2.2,2.7-2.2c0.9,0,1.8,0.3,2.4,1L24,10.9c-0.5-0.4-1-0.6-1.6-0.6c-0.6,0-1,0.3-1,0.7
		c0,0.5,0.5,0.6,1.1,0.9l1,0.4c0.9,0.4,1.5,1,1.5,2C25.1,15.5,24.1,16.6,22.3,16.6"/>
</g>
</svg>
