<?xml version="1.0" encoding="utf-8"?>
<!-- Generator: Adobe Illustrator 17.1.0, SVG Export Plug-In . SVG Version: 6.00 Build 0)  -->
<!DOCTYPE svg PUBLIC "-//W3C//DTD SVG 1.1//EN" "http://www.w3.org/Graphics/SVG/1.1/DTD/svg11.dtd">
<svg version="1.1" id="Layer_1" xmlns="http://www.w3.org/2000/svg" xmlns:xlink="http://www.w3.org/1999/xlink" x="0px" y="0px"
	 viewBox="0 0 19 20" enable-background="new 0 0 19 20" xml:space="preserve">
<g>
	<rect x="4.8" y="10.5" fill="#3E81B2" width="9.5" height="1"/>
	<rect x="4.8" y="12.4" fill="#3E81B2" width="9.5" height="1"/>
	<rect x="4.8" y="14.3" fill="#3E81B2" width="9.5" height="1"/>
	<path fill="#3E81B2" d="M17.1,1h-3.8V0h-1.4H7.1H5.7v1H1.9C0.9,1,0,1.8,0,2.9v2.6v12.6C0,19.1,0.9,20,1.9,20h15.2
		c1.1,0,1.9-0.9,1.9-1.9V5.5V2.9C19,1.8,18.2,1,17.1,1z M17.1,18.1H1.9V2.9h3.9c0.2,0.6,0.7,1,1.3,1h4.8c0.6,0,1.1-0.4,1.3-1h3.9
		V18.1z"/>
	<rect x="4.8" y="6.7" fill="#3E81B2" width="9.5" height="1"/>
	<rect x="4.8" y="8.6" fill="#3E81B2" width="9.5" height="1"/>
</g>
</svg>
