<?xml version="1.0" encoding="utf-8"?>
<!-- Generator: Adobe Illustrator 17.1.0, SVG Export Plug-In . SVG Version: 6.00 Build 0)  -->
<!DOCTYPE svg PUBLIC "-//W3C//DTD SVG 1.1//EN" "http://www.w3.org/Graphics/SVG/1.1/DTD/svg11.dtd">
<svg version="1.1" id="Layer_1" xmlns="http://www.w3.org/2000/svg" xmlns:xlink="http://www.w3.org/1999/xlink" x="0px" y="0px"
	 viewBox="0 0 20 26.7" enable-background="new 0 0 20 26.7" xml:space="preserve">
<path fill="#FFFFFF" d="M19.8,8.5l-8.3-8.3C11.4,0.1,11.3,0,11.1,0H1.7C0.7,0,0,0.7,0,1.7V25c0,0.9,0.7,1.7,1.7,1.7h16.7
	c0.9,0,1.7-0.7,1.7-1.7V8.9C20,8.7,19.9,8.6,19.8,8.5z M16,19.1c0,0.1-0.1,0.2-0.2,0.2H4.3c-0.1,0-0.2-0.1-0.2-0.2v-0.5
	c0-2.5,4.5-2,4.5-4c0,0-1.5-1.5-1.5-4.2c0-1.7,1.3-3,3-3s3,1.3,3,3c0,2.7-1.5,4.2-1.5,4.2c0,2,4.5,1.5,4.5,4V19.1z"/>
</svg>
