<?xml version="1.0" encoding="utf-8"?>
<!-- Generator: Adobe Illustrator 17.1.0, SVG Export Plug-In . SVG Version: 6.00 Build 0)  -->
<!DOCTYPE svg PUBLIC "-//W3C//DTD SVG 1.1//EN" "http://www.w3.org/Graphics/SVG/1.1/DTD/svg11.dtd">
<svg version="1.1" id="Layer_1" xmlns="http://www.w3.org/2000/svg" xmlns:xlink="http://www.w3.org/1999/xlink" x="0px" y="0px"
	 viewBox="0 0 17.5 17.5" enable-background="new 0 0 17.5 17.5" xml:space="preserve">
<g>
	<path fill="#BBBBBB" d="M17.5,14.2c0,0.1,0,0.2-0.1,0.3l-2.9,2.9c-0.1,0.1-0.2,0.1-0.3,0.1s-0.2,0-0.3-0.1l-5.1-5.1l-5.1,5.1
		c-0.1,0.1-0.2,0.1-0.3,0.1s-0.2,0-0.3-0.1l-2.9-2.9C0,14.4,0,14.3,0,14.2s0-0.2,0.1-0.3l5.1-5.1L0.1,3.7C0,3.6,0,3.5,0,3.4
		s0-0.2,0.1-0.3l2.9-2.9C3.1,0,3.2,0,3.4,0s0.2,0,0.3,0.1l5.1,5.1l5.1-5.1C14,0,14.1,0,14.2,0s0.2,0,0.3,0.1l2.9,2.9
		c0.1,0.1,0.1,0.2,0.1,0.3s0,0.2-0.1,0.3l-5.1,5.1l5.1,5.1C17.5,14,17.5,14.1,17.5,14.2z"/>
</g>
</svg>
