<?xml version="1.0" encoding="utf-8"?>
<!-- Generator: Adobe Illustrator 17.1.0, SVG Export Plug-In . SVG Version: 6.00 Build 0)  -->
<!DOCTYPE svg PUBLIC "-//W3C//DTD SVG 1.1//EN" "http://www.w3.org/Graphics/SVG/1.1/DTD/svg11.dtd">
<svg version="1.1" id="Layer_1" xmlns="http://www.w3.org/2000/svg" xmlns:xlink="http://www.w3.org/1999/xlink" x="0px" y="0px"
	 viewBox="0 0 20 18" enable-background="new 0 0 20 18" xml:space="preserve">
<g>
	<path fill="#3E81B2" d="M17.5,3c0-0.6-0.4-1-1-1h-2c-0.6,0-1,0.4-1,1v0.5h4V3z"/>
	<rect x="13.5" y="5" fill="#3E81B2" width="4" height="7"/>
	<rect x="13.5" y="13.5" fill="#3E81B2" width="4" height="1.5"/>
	<path fill="#3E81B2" d="M12.5,1c0-0.6-0.4-1-1-1h-3c-0.6,0-1,0.4-1,1v0.5h5V1z"/>
	<polygon fill="#3E81B2" points="12.5,3 7.5,3 7.5,5 7.5,12 12.5,12 	"/>
	<rect x="7.5" y="13.5" fill="#3E81B2" width="5" height="1.5"/>
	<path fill="#3E81B2" d="M6.5,5c0-0.6-0.4-1-1-1h-2c-0.6,0-1,0.5-1,1v0.5h4V5z"/>
	<rect x="2.5" y="7" fill="#3E81B2" width="4" height="5"/>
	<rect x="2.5" y="13.5" fill="#3E81B2" width="4" height="1.5"/>
	<path fill="#3E81B2" d="M19,16h-0.5h-5h-1h-5h-1h-5H1c-0.6,0-1,0.4-1,1c0,0.6,0.4,1,1,1h18c0.6,0,1-0.4,1-1C20,16.4,19.6,16,19,16z
		"/>
</g>
</svg>
