<?xml version="1.0" encoding="utf-8"?>
<!-- Generator: Adobe Illustrator 17.1.0, SVG Export Plug-In . SVG Version: 6.00 Build 0)  -->
<!DOCTYPE svg PUBLIC "-//W3C//DTD SVG 1.1//EN" "http://www.w3.org/Graphics/SVG/1.1/DTD/svg11.dtd">
<svg version="1.1" id="Layer_1" xmlns="http://www.w3.org/2000/svg" xmlns:xlink="http://www.w3.org/1999/xlink" x="0px" y="0px"
	 viewBox="0 0 15 20" enable-background="new 0 0 15 20" xml:space="preserve">
<g>
	<path fill="#3E81B2" d="M15,19.6c0,0.2-0.2,0.4-0.4,0.4H0.4C0.2,20,0,19.8,0,19.6v-7.9h3.7v3.1c0,0.2,0.1,0.3,0.3,0.4
		c0.2,0.1,0.3,0,0.5-0.1L9.5,10L4.5,4.9C4.3,4.8,4.2,4.8,4,4.8C3.8,4.9,3.7,5,3.7,5.2v3.1H0V0.4C0,0.2,0.2,0,0.4,0h14.2
		C14.8,0,15,0.2,15,0.4V19.6z"/>
</g>
</svg>
