<?xml version="1.0" encoding="utf-8"?>
<!-- Generator: Adobe Illustrator 17.1.0, SVG Export Plug-In . SVG Version: 6.00 Build 0)  -->
<!DOCTYPE svg PUBLIC "-//W3C//DTD SVG 1.1//EN" "http://www.w3.org/Graphics/SVG/1.1/DTD/svg11.dtd">
<svg version="1.1" id="Layer_1" xmlns="http://www.w3.org/2000/svg" xmlns:xlink="http://www.w3.org/1999/xlink" x="0px" y="0px"
	 viewBox="0 0 20 26.7" enable-background="new 0 0 20 26.7" xml:space="preserve">
<path fill="#FFFFFF" d="M19.8,8.5l-8.3-8.3C11.4,0.1,11.3,0,11.1,0H1.7C0.7,0,0,0.7,0,1.7V25c0,0.9,0.7,1.7,1.7,1.7h16.7
	c0.9,0,1.7-0.7,1.7-1.7V8.9C20,8.7,19.9,8.6,19.8,8.5z M7.6,18C7.5,18,7.5,18.1,7.6,18l-3.2,1.3c0,0-0.1,0-0.1,0
	c-0.1,0-0.1,0-0.2-0.1C4,19.2,4,19.1,4,19l1.2-3.1c0,0,0-0.1,0.1-0.1l6.2-6.2l2.2,2.2L7.6,18z M15.8,9.8l-1.3,1.3l-2.2-2.2l1.3-1.3
	c0.3-0.3,0.8-0.3,1.1,0l1.2,1.2C16.1,9,16.1,9.5,15.8,9.8z"/>
</svg>
