<?xml version="1.0" encoding="utf-8"?>
<!-- Generator: Adobe Illustrator 17.1.0, SVG Export Plug-In . SVG Version: 6.00 Build 0)  -->
<!DOCTYPE svg PUBLIC "-//W3C//DTD SVG 1.1//EN" "http://www.w3.org/Graphics/SVG/1.1/DTD/svg11.dtd">
<svg version="1.1" id="Layer_1" xmlns="http://www.w3.org/2000/svg" xmlns:xlink="http://www.w3.org/1999/xlink" x="0px" y="0px"
	 viewBox="0 0 29.3 20" enable-background="new 0 0 29.3 20" xml:space="preserve">
<g>
	<path fill="#BBBBBB" d="M14.6,10.3c0.8,0,1.5-0.3,2.1-0.9l0.1-0.1l11.1-8.7C27.5,0.2,26.9,0,26.4,0H2.9C2.4,0,1.8,0.2,1.4,0.7
		l11.2,8.8C13.1,10,13.9,10.3,14.6,10.3z"/>
	<path fill="#BBBBBB" d="M0.3,1.7C0.2,1.6,0.2,1.6,0.1,1.5C0,1.8,0,2,0,2.3v15.4c0,0.3,0,0.5,0.1,0.8c0.1-0.1,0.1-0.1,0.1-0.2
		l0.1-0.1L10.8,10L0.3,1.7z"/>
	<path fill="#BBBBBB" d="M14.6,11.9c-1,0-1.8-0.3-2.6-0.9L1.4,19.3C1.8,19.8,2.4,20,2.9,20h23.4c0.6,0,1.1-0.2,1.5-0.7L17.2,11
		C16.5,11.5,15.6,11.9,14.6,11.9z"/>
	<path fill="#BBBBBB" d="M29.2,1.5c0,0.1-0.1,0.1-0.1,0.2L29,1.7L18.5,10L29,18.3c0.1,0.1,0.1,0.1,0.1,0.2c0.1-0.3,0.1-0.5,0.1-0.8
		V2.3C29.3,2,29.2,1.8,29.2,1.5z"/>
</g>
</svg>
