<?xml version="1.0" encoding="utf-8"?>
<!-- Generator: Adobe Illustrator 17.1.0, SVG Export Plug-In . SVG Version: 6.00 Build 0)  -->
<!DOCTYPE svg PUBLIC "-//W3C//DTD SVG 1.1//EN" "http://www.w3.org/Graphics/SVG/1.1/DTD/svg11.dtd">
<svg version="1.1" id="Layer_1" xmlns="http://www.w3.org/2000/svg" xmlns:xlink="http://www.w3.org/1999/xlink" x="0px" y="0px"
	 viewBox="0 0 20 20" enable-background="new 0 0 20 20" xml:space="preserve">
<g>
	<path fill="#8C1D40" d="M19.7,19c-0.4,0.6-1.1,1-1.8,1H2.1c-0.7,0-1.4-0.4-1.8-1c-0.4-0.6-0.4-1.4-0.1-2L8.1,1.2
		C8.5,0.4,9.2,0,10,0s1.5,0.4,1.9,1.2L19.8,17C20.1,17.6,20.1,18.4,19.7,19z M11.7,16.2c0-0.9-0.7-1.7-1.7-1.7
		c-0.9,0-1.7,0.7-1.7,1.7c0,0.9,0.7,1.7,1.7,1.7C10.9,17.9,11.7,17.2,11.7,16.2z M8.7,12.5h2.5V5.4H8.7V12.5z"/>
</g>
</svg>
