<?xml version="1.0" encoding="utf-8"?>
<!-- Generator: Adobe Illustrator 17.1.0, SVG Export Plug-In . SVG Version: 6.00 Build 0)  -->
<!DOCTYPE svg PUBLIC "-//W3C//DTD SVG 1.1//EN" "http://www.w3.org/Graphics/SVG/1.1/DTD/svg11.dtd">
<svg version="1.1" id="Layer_1" xmlns="http://www.w3.org/2000/svg" xmlns:xlink="http://www.w3.org/1999/xlink" x="0px" y="0px"
	 viewBox="0 0 19 20" enable-background="new 0 0 19 20" xml:space="preserve">
<g>
	<path fill="#3E81B2" d="M18.8,12.8c0.1,0.1,0.2,0.3,0.1,0.4c-0.4,1.2-1.1,2.3-1.9,3.3c-0.1,0.1-0.3,0.2-0.4,0.1l-2.4-0.8
		c-0.6,0.5-1.3,0.9-2,1.2l-0.5,2.5c0,0.2-0.2,0.3-0.3,0.3c-0.6,0.1-1.2,0.2-1.9,0.2s-1.3-0.1-1.9-0.2c-0.2,0-0.3-0.2-0.3-0.3L6.8,17
		c-0.7-0.3-1.4-0.7-2-1.2l-2.4,0.8c-0.2,0.1-0.3,0-0.4-0.1c-0.8-0.9-1.5-2.1-1.9-3.3c-0.1-0.2,0-0.3,0.1-0.4l1.9-1.7
		C2,10.8,2,10.4,2,10s0-0.8,0.1-1.2L0.1,7.2C0,7.1,0,6.9,0,6.7c0.4-1.2,1.1-2.3,1.9-3.3C2,3.3,2.2,3.3,2.4,3.3l2.4,0.8
		c0.6-0.5,1.3-0.9,2-1.2l0.5-2.5c0-0.2,0.2-0.3,0.3-0.3c1.2-0.3,2.5-0.3,3.8,0c0.2,0,0.3,0.2,0.3,0.3L12.2,3c0.7,0.3,1.4,0.7,2,1.2
		l2.4-0.8c0.2-0.1,0.3,0,0.4,0.1c0.8,0.9,1.5,2.1,1.9,3.3c0.1,0.2,0,0.3-0.1,0.4l-1.9,1.7C17,9.2,17,9.6,17,10s0,0.8-0.1,1.2
		L18.8,12.8z M13.2,10c0-2.1-1.7-3.8-3.7-3.8c-2.1,0-3.7,1.7-3.7,3.8c0,2.1,1.7,3.8,3.7,3.8C11.5,13.8,13.2,12.1,13.2,10z"/>
</g>
</svg>
