<?xml version="1.0" encoding="utf-8"?>
<!-- Generator: Adobe Illustrator 17.1.0, SVG Export Plug-In . SVG Version: 6.00 Build 0)  -->
<!DOCTYPE svg PUBLIC "-//W3C//DTD SVG 1.1//EN" "http://www.w3.org/Graphics/SVG/1.1/DTD/svg11.dtd">
<svg version="1.1" id="Layer_1" xmlns="http://www.w3.org/2000/svg" xmlns:xlink="http://www.w3.org/1999/xlink" x="0px" y="0px"
	 viewBox="0 0 20 20" enable-background="new 0 0 20 20" xml:space="preserve">
<path fill="#BBBBBB" d="M8.1,4.6c-0.3-3-3.4-4.5-3.5-4.5C4.5,0,4.3,0,4.2,0C0.6,0.6,0,2.7,0,2.8C0,2.9,0,3,0,3.2
	C4.3,16.5,13.3,19,16.2,19.8c0.2,0.1,0.4,0.1,0.6,0.2c0.1,0,0.1,0,0.2,0c0.1,0,0.2,0,0.3-0.1c0.1,0,2.2-1,2.7-4.3
	c0-0.1,0-0.3-0.1-0.4c0-0.1-1.2-2.2-4.2-3c-0.2-0.1-0.4,0-0.6,0.1c-1,0.8-2.3,1.7-2.9,1.8C8.3,12.3,6.1,8.7,6.1,8
	c0-0.4,0.8-1.8,1.9-2.9C8.1,5,8.1,4.8,8.1,4.6"/>
</svg>
