<?xml version="1.0" encoding="utf-8"?>
<!-- Generator: Adobe Illustrator 17.1.0, SVG Export Plug-In . SVG Version: 6.00 Build 0)  -->
<!DOCTYPE svg PUBLIC "-//W3C//DTD SVG 1.1//EN" "http://www.w3.org/Graphics/SVG/1.1/DTD/svg11.dtd">
<svg version="1.1" id="Layer_1" xmlns="http://www.w3.org/2000/svg" xmlns:xlink="http://www.w3.org/1999/xlink" x="0px" y="0px"
	 viewBox="0 0 20 20" enable-background="new 0 0 20 20" xml:space="preserve">
<g>
	<path fill="#3E81B2" d="M20,7.5c0,4.1-3.4,7.5-7.5,7.5c-1.5,0-2.8-0.4-4-1.2l-5.6,5.7C2.5,19.8,2.1,20,1.7,20
		c-0.4,0-0.9-0.2-1.2-0.5c-0.6-0.6-0.6-1.7,0-2.4l5.7-5.6C5.4,10.3,5,9,5,7.5C5,3.4,8.4,0,12.5,0C16.6,0,20,3.4,20,7.5z M17.5,7.5
		c0-2.8-2.2-5-5-5c-2.8,0-5,2.2-5,5c0,2.8,2.2,5,5,5C15.3,12.5,17.5,10.3,17.5,7.5z"/>
</g>
</svg>
