<?xml version="1.0" encoding="utf-8"?>
<!-- Generator: Adobe Illustrator 17.1.0, SVG Export Plug-In . SVG Version: 6.00 Build 0)  -->
<!DOCTYPE svg PUBLIC "-//W3C//DTD SVG 1.1//EN" "http://www.w3.org/Graphics/SVG/1.1/DTD/svg11.dtd">
<svg version="1.1" id="Layer_1" xmlns="http://www.w3.org/2000/svg" xmlns:xlink="http://www.w3.org/1999/xlink" x="0px" y="0px"
	 viewBox="0 0 20 13" enable-background="new 0 0 20 13" xml:space="preserve">
<g>
	<path fill="#3E81B2" d="M10,6.7c0.5,0,1-0.2,1.4-0.6l0.1,0L19,0.4C18.8,0.2,18.4,0,18,0H2C1.6,0,1.2,0.2,1,0.4l7.6,5.7
		C9,6.5,9.5,6.7,10,6.7z"/>
	<path fill="#3E81B2" d="M0.2,1.1C0.1,1,0.1,1,0.1,1C0,1.1,0,1.3,0,1.5v10c0,0.2,0,0.4,0.1,0.5c0,0,0.1-0.1,0.1-0.1l0.1,0l7.2-5.4
		L0.2,1.1z"/>
	<path fill="#3E81B2" d="M10,7.7c-0.6,0-1.3-0.2-1.8-0.6L1,12.6C1.2,12.8,1.6,13,2,13h16c0.4,0,0.8-0.2,1-0.4l-7.3-5.4
		C11.3,7.5,10.7,7.7,10,7.7z"/>
	<path fill="#3E81B2" d="M19.9,1c0,0-0.1,0.1-0.1,0.1l-0.1,0l-7.2,5.4l7.2,5.4c0,0,0.1,0.1,0.1,0.1c0-0.2,0.1-0.3,0.1-0.5v-10
		C20,1.3,20,1.1,19.9,1z"/>
</g>
</svg>
