<?xml version="1.0" encoding="utf-8"?>
<!-- Generator: Adobe Illustrator 17.1.0, SVG Export Plug-In . SVG Version: 6.00 Build 0)  -->
<!DOCTYPE svg PUBLIC "-//W3C//DTD SVG 1.1//EN" "http://www.w3.org/Graphics/SVG/1.1/DTD/svg11.dtd">
<svg version="1.1" id="Layer_1" xmlns="http://www.w3.org/2000/svg" xmlns:xlink="http://www.w3.org/1999/xlink" x="0px" y="0px"
	 viewBox="0 0 20 12.1" enable-background="new 0 0 20 12.1" xml:space="preserve">
<g>
	<path fill="#3E81B2" d="M18,4h-0.4c-0.8-2.3-3.1-4-5.7-4H5.2v1.6H2.8V0H0v5.1h5.9c0,0.3-0.1,0.6-0.1,0.9c0,3.3,2.7,6,6,6
		c2.6,0,4.8-1.7,5.7-4H18c1.1,0,2-0.9,2-2C20,4.9,19.1,4,18,4z M11.9,9.7C9.9,9.7,8.3,8,8.3,6c0-2,1.6-3.6,3.6-3.6
		c2,0,3.6,1.6,3.6,3.6C15.5,8,13.9,9.7,11.9,9.7z M18,7.4h-0.2C17.9,7,17.9,6.5,17.9,6c0-0.5-0.1-0.9-0.2-1.4H18
		c0.8,0,1.4,0.6,1.4,1.4C19.3,6.8,18.7,7.4,18,7.4z"/>
	<circle fill="#3E81B2" cx="11.9" cy="6" r="2.3"/>
</g>
</svg>
