<?xml version="1.0" encoding="utf-8"?>
<!-- Generator: Adobe Illustrator 17.1.0, SVG Export Plug-In . SVG Version: 6.00 Build 0)  -->
<!DOCTYPE svg PUBLIC "-//W3C//DTD SVG 1.1//EN" "http://www.w3.org/Graphics/SVG/1.1/DTD/svg11.dtd">
<svg version="1.1" id="Layer_1" xmlns="http://www.w3.org/2000/svg" xmlns:xlink="http://www.w3.org/1999/xlink" x="0px" y="0px"
	 viewBox="0 0 15.3 20" enable-background="new 0 0 15.3 20" xml:space="preserve">
<g>
	<g>
		<path fill="#FFFFFF" d="M7.5,1.1C7.6,1,7.6,1,7.6,1s0.1,0,0.1,0.1L12,5.3c0.1,0.1,0.1,0.1,0,0.2c0,0.1-0.1,0.1-0.2,0.1H9.4v4.4
			c0,0.1-0.1,0.2-0.2,0.2H6.1c-0.1,0-0.2-0.1-0.2-0.2V5.6H3.4c-0.1,0-0.2,0-0.2-0.1c0-0.1,0-0.2,0-0.2L7.5,1.1z"/>
		<path fill="#FFFFFF" d="M7.8,20.9c0,0-0.1,0.1-0.1,0.1s-0.1,0-0.1-0.1l-4.3-4.3c-0.1-0.1-0.1-0.1,0-0.2c0-0.1,0.1-0.1,0.2-0.1h2.5
			v-4.4c0-0.1,0.1-0.2,0.2-0.2h3.1c0.1,0,0.2,0.1,0.2,0.2v4.4h2.5c0.1,0,0.2,0,0.2,0.1c0,0.1,0,0.2,0,0.2L7.8,20.9z"/>
		<rect x="0" y="7.1" fill="#FFFFFF" width="3.2" height="3.2"/>
		<rect x="0" y="11.7" fill="#FFFFFF" width="3.2" height="3.2"/>
		<rect x="12.1" y="7.1" fill="#FFFFFF" width="3.2" height="3.2"/>
		<rect x="12.1" y="11.7" fill="#FFFFFF" width="3.2" height="3.2"/>
	</g>
	<g>
		<g>
			<g>
				<path fill="#BBBBBB" d="M7.5,0.1C7.6,0,7.6,0,7.6,0s0.1,0,0.1,0.1L12,4.3c0.1,0.1,0.1,0.1,0,0.2c0,0.1-0.1,0.1-0.2,0.1H9.4v4.4
					c0,0.1-0.1,0.2-0.2,0.2H6.1C6,9.3,5.9,9.2,5.9,9.1V4.6H3.4c-0.1,0-0.2,0-0.2-0.1c0-0.1,0-0.2,0-0.2L7.5,0.1z"/>
			</g>
			<g>
				<path fill="#BBBBBB" d="M7.8,19.9c0,0-0.1,0.1-0.1,0.1s-0.1,0-0.1-0.1l-4.3-4.3c-0.1-0.1-0.1-0.1,0-0.2c0-0.1,0.1-0.1,0.2-0.1
					h2.5v-4.4c0-0.1,0.1-0.2,0.2-0.2h3.1c0.1,0,0.2,0.1,0.2,0.2v4.4h2.5c0.1,0,0.2,0,0.2,0.1c0,0.1,0,0.2,0,0.2L7.8,19.9z"/>
			</g>
			<rect x="0" y="6.1" fill="#BBBBBB" width="3.2" height="3.2"/>
			<rect x="0" y="10.7" fill="#BBBBBB" width="3.2" height="3.2"/>
			<rect x="12.1" y="6.1" fill="#BBBBBB" width="3.2" height="3.2"/>
			<rect x="12.1" y="10.7" fill="#BBBBBB" width="3.2" height="3.2"/>
		</g>
	</g>
</g>
</svg>
