<?xml version="1.0" encoding="utf-8"?>
<!-- Generator: Adobe Illustrator 17.1.0, SVG Export Plug-In . SVG Version: 6.00 Build 0)  -->
<!DOCTYPE svg PUBLIC "-//W3C//DTD SVG 1.1//EN" "http://www.w3.org/Graphics/SVG/1.1/DTD/svg11.dtd">
<svg version="1.1" id="Layer_1" xmlns="http://www.w3.org/2000/svg" xmlns:xlink="http://www.w3.org/1999/xlink" x="0px" y="0px"
	 viewBox="0 0 20 20" enable-background="new 0 0 20 20" xml:space="preserve">
<g>
	<path fill="#3E81B2" d="M17.5,19.6c0,0.1-0.1,0.3-0.2,0.3C17.2,20,17,20,16.9,20l-6.4-3.2l-2.3,3.1C8.2,19.9,8.1,20,7.9,20
		c0,0-0.1,0-0.1,0c-0.2,0-0.3-0.2-0.3-0.4v-4.2c0-0.1,0-0.2,0.1-0.3l9.1-11.7L4.9,13.7c-0.1,0.1-0.2,0.1-0.3,0.1c-0.1,0-0.1,0-0.2,0
		l-4.2-2.1C0.1,11.6,0,11.4,0,11.3c0-0.2,0.1-0.3,0.2-0.4L19.4,0c0.1-0.1,0.3-0.1,0.4,0C20,0.2,20,0.3,20,0.5L17.5,19.6z"/>
</g>
</svg>
