<?xml version="1.0" encoding="utf-8"?>
<!-- Generator: Adobe Illustrator 17.1.0, SVG Export Plug-In . SVG Version: 6.00 Build 0)  -->
<!DOCTYPE svg PUBLIC "-//W3C//DTD SVG 1.1//EN" "http://www.w3.org/Graphics/SVG/1.1/DTD/svg11.dtd">
<svg version="1.1" id="Layer_1" xmlns="http://www.w3.org/2000/svg" xmlns:xlink="http://www.w3.org/1999/xlink" x="0px" y="0px"
	 viewBox="0 0 20.3 20.3" enable-background="new 0 0 20.3 20.3" xml:space="preserve">
<g>
	<path fill="#BBBBBB" d="M12.5,20.2c-0.1,0.1-0.2,0.1-0.3,0.1H8.1c-0.1,0-0.2,0-0.3-0.1c-0.1-0.1-0.1-0.2-0.1-0.3v-7.2H0.4
		c-0.1,0-0.2,0-0.3-0.1S0,12.4,0,12.2l0-4.2C0,8,0,7.9,0.1,7.8c0.1-0.1,0.2-0.1,0.3-0.1h7.2V0.4c0-0.1,0-0.2,0.1-0.3
		C7.9,0,8,0,8.1,0l4.2,0c0.1,0,0.2,0,0.3,0.1s0.1,0.2,0.1,0.3v7.2h7.2c0.1,0,0.2,0,0.3,0.1c0.1,0.1,0.1,0.2,0.1,0.3v4.2
		c0,0.1,0,0.2-0.1,0.3c-0.1,0.1-0.2,0.1-0.3,0.1h-7.2v7.2C12.7,20,12.6,20.1,12.5,20.2z"/>
</g>
</svg>
