<?xml version="1.0" encoding="utf-8"?>
<!-- Generator: Adobe Illustrator 17.1.0, SVG Export Plug-In . SVG Version: 6.00 Build 0)  -->
<!DOCTYPE svg PUBLIC "-//W3C//DTD SVG 1.1//EN" "http://www.w3.org/Graphics/SVG/1.1/DTD/svg11.dtd">
<svg version="1.1" id="Layer_1" xmlns="http://www.w3.org/2000/svg" xmlns:xlink="http://www.w3.org/1999/xlink" x="0px" y="0px"
	 viewBox="0 0 15 15" enable-background="new 0 0 15 15" xml:space="preserve">
<g>
	<path fill="#9EC0D9" d="M15,12.1c0,0.1,0,0.2-0.1,0.3l-2.5,2.5C12.3,15,12.2,15,12.1,15c-0.1,0-0.2,0-0.3-0.1l-4.4-4.4l-4.4,4.4
		C3,15,3,15,2.9,15c-0.1,0-0.2,0-0.3-0.1l-2.5-2.5C0,12.3,0,12.2,0,12.1C0,12,0,12,0.1,11.9l4.4-4.4L0.1,3.1C0,3,0,3,0,2.9
		s0-0.2,0.1-0.3l2.5-2.5C2.7,0,2.8,0,2.9,0C3,0,3,0,3.1,0.1l4.4,4.4l4.4-4.4C12,0,12,0,12.1,0c0.1,0,0.2,0,0.3,0.1l2.5,2.5
		C15,2.7,15,2.8,15,2.9s0,0.2-0.1,0.3l-4.4,4.4l4.4,4.4C15,12,15,12,15,12.1z"/>
</g>
</svg>
